<svg width="4111" height="588" viewBox="0 0 4111 588" fill="none" xmlns="http://www.w3.org/2000/svg">
<path d="M1463.78 321.495V564.899C1463.78 575.476 1455.52 583.742 1444.95 583.742H1334.21C1323.64 583.742 1315.38 575.476 1315.38 564.899V549.812C1288.28 579.234 1240.16 588.01 1197.99 588.01C1174.65 588.01 1084.12 564.899 1084.12 479.699C1084.12 393.054 1135.37 351.552 1193.37 342.535C1231.03 337.275 1284.53 335.021 1315.38 333.518C1314.63 310.917 1306.36 282.999 1257.38 282.999C1212.2 282.999 1169.28 299.588 1147.38 308.605C1139.12 311.611 1131.56 308.605 1128.55 301.842C1124.8 294.328 1102.96 240.052 1100.71 234.041C1098.45 228.029 1098.45 217.452 1107.47 213.694C1133.06 200.111 1196.31 173.002 1274.65 173.002C1363.56 173.002 1452.4 210.689 1462.98 303.403C1463.73 309.414 1463.73 315.484 1463.73 321.495H1463.78ZM1315.32 404.257C1315.32 404.257 1231.07 393.232 1208.48 411.324C1193.6 422.67 1175.61 445.317 1187.61 470.457C1197.99 492.197 1222.55 496.133 1245.73 496.133C1293.97 496.133 1315.32 466.733 1315.38 404.257" fill="#006EFF"/>
<path d="M1641.15 94.2604L1595.63 139.808C1584.48 150.964 1566.46 150.964 1555.31 139.808L1509.78 94.2604C1498.63 83.1047 1498.63 65.0705 1509.78 53.9147L1555.31 8.36682C1566.46 -2.78894 1584.48 -2.78894 1595.63 8.36682L1641.15 53.9147C1652.3 65.0705 1652.3 83.1047 1641.15 94.2604" fill="#FF8201"/>
<path d="M328.853 540.056C298.617 492.93 130.503 107.998 0.515625 48.0713C51.0823 9.49778 177.038 -32.1754 282.318 79.2975C334.094 134.116 494.548 444.77 494.548 444.77C520.983 490.347 505.261 548.666 459.532 575.013C413.803 601.36 358.686 586.608 328.853 540.114" fill="#006EFF"/>
<path d="M494.912 540.056C525.149 492.93 693.263 107.998 823.25 48.0713C772.683 9.49778 646.728 -32.1754 541.448 79.2975C489.672 134.116 329.217 444.77 329.217 444.77C302.782 490.347 318.505 548.666 364.234 575.013C409.963 601.36 465.079 586.608 494.912 540.114" fill="#FF8201"/>
<path d="M1364.62 127.662C1370.4 135.985 1364.62 144.598 1352.55 145.87C1335.1 147.661 1232.33 155.58 1218.7 156.736C1208.07 157.603 1200.73 158.759 1195.42 151.072L1190.74 144.424C1186.58 138.124 1189.01 130.552 1198.13 127.257C1216.45 120.668 1307.09 104.83 1323.26 101.709C1340.01 98.472 1346.2 101.709 1351.57 108.934L1364.68 127.662H1364.62Z" fill="#006EFF"/>
<path d="M863.245 587.854C822.46 587.854 787.547 579.592 758.508 563.07C729.468 546.38 707.199 523.182 691.701 493.475C676.202 463.601 668.453 428.97 668.453 389.583C668.453 350.196 676.202 315.649 691.701 285.942C707.199 256.068 729.468 232.869 758.508 216.347C787.547 199.657 822.46 191.312 863.245 191.312C904.031 191.312 938.943 199.657 967.983 216.347C997.022 232.869 1019.29 256.068 1034.79 285.942C1050.29 315.649 1058.04 350.196 1058.04 389.583C1058.04 428.97 1050.29 463.601 1034.79 493.475C1019.29 523.182 997.022 546.38 967.983 563.07C938.943 579.592 904.031 587.854 863.245 587.854ZM864.224 485.714C875.644 485.714 885.514 481.792 893.835 473.948C902.155 466.104 908.599 454.922 913.167 440.403C917.735 425.883 920.019 408.609 920.019 388.582C920.019 368.388 917.735 351.114 913.167 336.761C908.599 322.241 902.155 311.059 893.835 303.215C885.514 295.371 875.644 291.449 864.224 291.449C852.152 291.449 841.792 295.371 833.146 303.215C824.499 311.059 817.892 322.241 813.324 336.761C808.756 351.114 806.472 368.388 806.472 388.582C806.472 408.609 808.756 425.883 813.324 440.403C817.892 454.922 824.499 466.104 833.146 473.948C841.792 481.792 852.152 485.714 864.224 485.714Z" fill="#006EFF"/>
<rect x="1510.17" y="176.4" width="132.226" height="411.605" rx="21" fill="#006EFF"/>
<rect x="1731" y="268.465" width="20" height="310" fill="#444444"/>
<path d="M1848 576.465V269.465H1944.04C2008.19 269.465 2043.26 298.08 2043.26 347.952C2043.26 404.365 2003.81 430.527 1940.85 430.527H1867.92V576.465H1848ZM1867.92 411.723H1942.44C1993.45 411.723 2023.33 395.78 2023.33 348.77C2023.33 304.621 1993.85 288.269 1942.04 288.269H1867.92V411.723Z" fill="#444444"/>
<path d="M2147.34 576.465C2100.32 576.465 2059.28 535.177 2059.28 464.457C2059.28 390.057 2103.51 352.858 2148.14 352.858C2197.55 352.858 2231.02 395.372 2231.02 462.822V465.683H2078.4C2078.4 524.14 2109.88 559.296 2148.54 559.296C2181.21 559.296 2199.94 543.353 2215.88 514.738L2229.83 523.731C2212.69 556.025 2187.99 576.465 2147.34 576.465ZM2078.8 449.332H2211.1C2208.31 405.183 2187.99 370.027 2147.74 370.027C2115.06 370.027 2083.98 396.189 2078.8 449.332Z" fill="#444444"/>
<path d="M2286.04 576.465V357.354H2305.17V402.321H2305.97C2323.5 374.115 2350.2 352.858 2392.04 352.858H2397.62L2394.43 371.253H2387.66C2352.19 371.253 2322.3 392.51 2305.17 430.527V576.465H2286.04Z" fill="#444444"/>
<path d="M2454.88 576.465V374.932H2418.22V357.354H2454.88V320.972C2454.88 284.59 2477.59 269.465 2512.26 269.465C2515.45 269.465 2519.43 269.465 2522.62 269.465V287.452C2519.43 287.043 2513.85 287.043 2509.87 287.043C2488.75 287.043 2474.01 296.036 2474.01 319.337V357.354H2520.23V374.932H2474.01V576.465H2454.88Z" fill="#444444"/>
<path d="M2637.76 576.465C2586.36 576.465 2545.71 533.133 2545.71 464.866C2545.71 395.78 2585.96 352.858 2637.76 352.858C2689.17 352.858 2729.81 395.78 2729.81 464.866C2729.81 533.133 2689.17 576.465 2637.76 576.465ZM2637.76 559.296C2682.79 559.296 2710.69 518.826 2710.69 464.457C2710.69 414.585 2685.18 370.027 2637.76 370.027C2592.73 370.027 2564.84 410.906 2564.84 464.457C2564.84 514.738 2589.94 559.296 2637.76 559.296Z" fill="#444444"/>
<path d="M2784.93 576.465V357.354H2804.06V402.321H2804.85C2822.39 374.115 2849.09 352.858 2890.93 352.858H2896.51L2893.32 371.253H2886.54C2851.08 371.253 2821.19 392.51 2804.06 430.527V576.465H2784.93Z" fill="#444444"/>
<path d="M2939.42 576.465V357.354H2958.55V392.919C2981.66 370.436 3006.37 352.858 3037.05 352.858C3072.52 352.858 3089.25 369.618 3095.23 393.328C3119.14 370.844 3145.84 352.858 3176.12 352.858C3219.16 352.858 3236.69 377.385 3236.69 416.22V576.465H3217.57V418.673C3217.57 385.97 3206.01 370.027 3174.13 370.027C3146.63 370.027 3123.52 385.561 3097.62 410.906V576.465H3078.49V418.673C3078.49 385.97 3067.34 370.027 3035.06 370.027C3007.96 370.027 2984.45 385.561 2958.55 410.906V576.465H2939.42Z" fill="#444444"/>
<path d="M3348.34 575.647C3310.09 575.647 3289.36 555.208 3289.36 522.505C3289.36 481.626 3323.24 450.967 3433.22 432.163V419.081C3433.22 386.378 3416.48 370.027 3387.79 370.027C3353.12 370.027 3330.01 383.926 3306.5 405.591L3295.34 393.328C3321.24 368.8 3347.94 352.858 3388.19 352.858C3431.62 352.858 3452.35 378.203 3452.35 417.855V518.826C3452.35 544.988 3455.71 565.428 3460.09 576.465H3439.77C3436.98 567.471 3433.22 552.346 3433.22 540.083C3407.72 562.566 3379.82 575.647 3348.34 575.647ZM3349.93 558.478C3381.02 558.478 3409.31 544.579 3433.22 520.87V446.879C3331.21 465.274 3308.49 491.028 3308.49 521.278C3308.49 545.397 3324.03 558.478 3349.93 558.478Z" fill="#444444"/>
<path d="M3516.92 576.465V357.354H3536.04V392.919C3559.16 370.436 3586.25 352.858 3616.94 352.858C3660.37 352.858 3680.3 377.385 3680.3 416.22V576.465H3661.17V418.673C3661.17 385.97 3647.22 370.027 3615.34 370.027C3586.25 370.027 3561.95 385.561 3536.04 410.906V576.465H3516.92Z" fill="#444444"/>
<path d="M3821.06 576.465C3773.24 576.465 3733.39 533.133 3733.39 464.866C3733.39 389.649 3776.83 352.858 3823.85 352.858C3866.09 352.858 3888.4 379.429 3901.55 410.088L3885.22 419.081C3872.46 388.422 3855.33 370.027 3823.05 370.027C3790.77 370.027 3752.52 394.554 3752.52 464.457C3752.52 524.549 3784 559.296 3822.26 559.296C3854.13 559.296 3870.87 542.535 3886.81 509.832L3901.95 517.599C3884.42 554.799 3860.91 576.465 3821.06 576.465Z" fill="#444444"/>
<path d="M4027.32 576.465C3980.3 576.465 3939.25 535.177 3939.25 464.457C3939.25 390.057 3983.48 352.858 4028.11 352.858C4077.53 352.858 4111 395.372 4111 462.822V465.683H3958.38C3958.38 524.14 3989.86 559.296 4028.51 559.296C4061.19 559.296 4079.92 543.353 4095.86 514.738L4109.8 523.731C4092.67 556.025 4067.96 576.465 4027.32 576.465ZM3958.78 449.332H4091.08C4088.29 405.183 4067.96 370.027 4027.72 370.027C3995.04 370.027 3963.96 396.189 3958.78 449.332Z" fill="#444444"/>
</svg>
