<svg width="1929" height="887" viewBox="0 0 1929 887" fill="none" xmlns="http://www.w3.org/2000/svg">
<path d="M1684.57 370.117V650.333C1684.57 662.511 1675.06 672.026 1662.89 672.026H1535.4C1523.23 672.026 1513.72 662.511 1513.72 650.333V632.965C1482.53 666.836 1427.12 676.939 1378.57 676.939C1351.71 676.939 1247.49 650.333 1247.49 552.248C1247.49 452.498 1306.49 404.72 1373.26 394.339C1416.62 388.284 1478.2 385.688 1513.72 383.958C1512.85 357.94 1503.34 325.799 1446.95 325.799C1394.94 325.799 1345.52 344.897 1320.32 355.278C1310.81 358.738 1302.1 355.278 1298.64 347.492C1294.31 338.841 1269.18 276.357 1266.58 269.436C1263.99 262.516 1263.99 250.338 1274.36 246.013C1303.83 230.375 1376.65 199.166 1466.83 199.166C1569.18 199.166 1671.47 242.553 1683.64 349.289C1684.5 356.209 1684.5 363.196 1684.5 370.117H1684.57ZM1513.65 465.396C1513.65 465.396 1416.66 452.703 1390.65 473.532C1373.52 486.594 1352.81 512.666 1366.63 541.608C1378.57 566.636 1406.85 571.168 1433.54 571.168C1489.08 571.168 1513.65 537.321 1513.72 465.396" fill="#006EFF"/>
<path d="M1888.77 108.516L1836.36 160.953C1823.52 173.796 1802.78 173.796 1789.94 160.953L1737.53 108.516C1724.7 95.6734 1724.7 74.9117 1737.53 62.0687L1789.94 9.63222C1802.78 -3.21074 1823.52 -3.21074 1836.36 9.63222L1888.77 62.0687C1901.6 74.9117 1901.6 95.6734 1888.77 108.516" fill="#FF8201"/>
<path d="M377.995 621.734C343.186 567.48 149.647 124.331 0 55.3414C58.2143 10.934 203.22 -37.0418 324.422 91.2902C384.029 154.399 568.75 512.037 568.75 512.037C599.183 564.506 581.082 631.646 528.438 661.978C475.793 692.31 412.34 675.327 377.995 621.8" fill="#006EFF"/>
<path d="M569.175 621.734C603.984 567.48 797.524 124.331 947.17 55.3414C888.956 10.934 743.951 -37.0418 622.748 91.2902C563.141 154.399 378.42 512.037 378.42 512.037C347.987 564.506 366.088 631.646 418.733 661.978C471.377 692.31 534.83 675.327 569.175 621.8" fill="#FF8201"/>
<path d="M1570.42 146.969C1577.07 156.552 1570.42 166.467 1556.52 167.931C1536.43 169.994 1418.12 179.11 1402.42 180.441C1390.18 181.439 1381.74 182.77 1375.62 173.92L1370.23 166.267C1365.44 159.014 1368.24 150.297 1378.75 146.504C1399.83 138.918 1504.18 120.685 1522.8 117.091C1542.08 113.365 1549.2 117.091 1555.39 125.409L1570.48 146.969H1570.42Z" fill="#006EFF"/>
<path d="M993.206 676.76C946.252 676.76 906.059 667.249 872.628 648.228C839.196 629.014 813.559 602.308 795.717 568.107C777.874 533.715 768.953 493.847 768.953 448.503C768.953 403.159 777.874 363.387 795.717 329.187C813.559 294.795 839.196 268.088 872.628 249.066C906.059 229.853 946.252 220.246 993.206 220.246C1040.16 220.246 1080.35 229.853 1113.78 249.066C1147.21 268.088 1172.85 294.795 1190.69 329.187C1208.54 363.387 1217.46 403.159 1217.46 448.503C1217.46 493.847 1208.54 533.715 1190.69 568.107C1172.85 602.308 1147.21 629.014 1113.78 648.228C1080.35 667.249 1040.16 676.76 993.206 676.76ZM994.333 559.173C1007.48 559.173 1018.84 554.658 1028.42 545.628C1038 536.597 1045.42 523.724 1050.68 507.008C1055.94 490.293 1058.57 470.407 1058.57 447.35C1058.57 424.102 1055.94 404.216 1050.68 387.692C1045.42 370.976 1038 358.103 1028.42 349.073C1018.84 340.043 1007.48 335.527 994.333 335.527C980.434 335.527 968.508 340.043 958.554 349.073C948.599 358.103 940.993 370.976 935.734 387.692C930.475 404.216 927.846 424.102 927.846 447.35C927.846 470.407 930.475 490.293 935.734 507.008C940.993 523.724 948.599 536.597 958.554 545.628C968.508 554.658 980.434 559.173 994.333 559.173Z" fill="#006EFF"/>
<rect x="1737.98" y="203.08" width="152.224" height="473.856" rx="21" fill="#006EFF"/>
<path d="M1425.4 752.159H1445.67V855.626H1425.4V752.159Z" fill="#006EFF"/>
<path d="M1507.3 855.629V813.67C1507.3 807.659 1506.43 803.322 1504.66 800.66C1502.9 797.997 1500 796.705 1495.86 796.705C1492.5 796.61 1489.22 797.739 1486.63 799.882C1484.14 801.974 1482.28 804.71 1481.24 807.791V855.629H1462.06V781.73H1477.31L1479.53 791.485H1480.12C1482.58 788.168 1485.65 785.357 1489.18 783.206C1492.92 780.842 1497.75 779.66 1503.67 779.66C1506.99 779.613 1510.29 780.111 1513.44 781.137C1516.24 782.089 1518.74 783.773 1520.68 786.014C1522.86 788.701 1524.38 791.861 1525.12 795.242C1526.19 799.972 1526.68 804.814 1526.6 809.663V855.629H1507.3Z" fill="#006EFF"/>
<path d="M1531.99 781.731H1542.19V767.837L1561.41 762.366V781.731H1579.44V797.998H1561.41V826.379C1561.41 831.511 1561.93 835.184 1562.95 837.399C1563.47 838.487 1564.3 839.389 1565.35 839.984C1566.39 840.578 1567.6 840.836 1568.79 840.721C1570.51 840.752 1572.23 840.553 1573.89 840.128C1575.54 839.659 1577.15 839.069 1578.7 838.361L1582.11 853.139C1579.12 854.536 1575.99 855.627 1572.79 856.395C1569.26 857.274 1565.63 857.716 1561.99 857.713C1555.2 857.713 1550.2 855.955 1546.99 852.44C1543.78 848.925 1542.19 843.182 1542.19 835.211V797.998H1531.99V781.731Z" fill="#006EFF"/>
<path d="M1646.7 849.298C1643.08 851.996 1639 854.022 1634.66 855.282C1629.42 856.93 1623.96 857.753 1618.47 857.721C1606.54 857.721 1597.82 854.245 1592.31 847.294C1586.8 840.343 1584.06 830.816 1584.08 818.715C1584.08 805.7 1587.18 795.941 1593.39 789.437C1599.59 782.934 1608.31 779.683 1619.55 779.683C1623.25 779.68 1626.93 780.176 1630.49 781.159C1633.96 782.098 1637.18 783.76 1639.96 786.036C1642.86 788.543 1645.12 791.707 1646.55 795.264C1648.34 799.785 1649.2 804.624 1649.08 809.487C1649.08 811.557 1648.94 813.772 1648.71 816.079C1648.47 818.385 1648.09 820.916 1647.59 823.474H1603.25C1603.54 829.678 1605.14 834.362 1608.04 837.526C1610.95 840.69 1615.66 842.263 1622.16 842.245C1625.87 842.308 1629.56 841.683 1633.04 840.4C1635.64 839.491 1638.1 838.222 1640.35 836.63L1646.7 849.298ZM1619.21 794.987C1614.19 794.987 1610.46 796.503 1608.04 799.509C1605.45 803.014 1603.93 807.202 1603.68 811.557H1631.19C1631.57 806.284 1630.77 802.145 1628.74 799.285C1626.71 796.424 1623.55 794.987 1619.21 794.987Z" fill="#006EFF"/>
<path d="M1679.52 830.817C1679.35 833.4 1679.81 835.986 1680.84 838.357C1681.26 839.118 1681.88 839.744 1682.64 840.162C1683.4 840.58 1684.26 840.773 1685.13 840.717C1686.29 840.721 1687.46 840.624 1688.61 840.427C1690.05 840.134 1691.46 839.692 1692.81 839.109L1694.88 854.189C1692.56 855.226 1690.13 856.017 1687.64 856.549C1684.35 857.344 1680.97 857.743 1677.59 857.735C1671.97 857.735 1667.68 856.417 1664.72 853.78C1661.76 851.144 1660.28 846.829 1660.29 840.836V752.159H1679.51L1679.52 830.817Z" fill="#006EFF"/>
<path d="M1701.97 781.72H1721.14V855.619H1701.97V781.72Z" fill="#006EFF"/>
<path d="M1799.56 855.629C1799.56 866.369 1796.65 874.278 1790.83 879.357C1785.02 884.437 1776.88 886.977 1766.44 886.977C1760.81 887.114 1755.18 886.615 1749.66 885.487C1746.47 884.819 1743.37 883.78 1740.43 882.389L1744.39 867.164C1746.65 868.043 1749.29 868.921 1752.29 869.8C1755.93 870.768 1759.69 871.211 1763.46 871.119C1770.15 871.119 1774.71 869.664 1777.14 866.755C1779.56 863.846 1780.77 859.777 1780.75 854.549V849.816H1780.16C1776.72 854.456 1770.61 856.776 1761.84 856.776C1752.27 856.776 1745.15 853.819 1740.47 847.905C1735.8 841.99 1733.45 832.723 1733.45 820.104C1733.45 806.921 1736.6 796.916 1742.91 790.088C1749.22 783.259 1758.38 779.863 1770.4 779.898C1776.07 779.844 1781.74 780.285 1787.33 781.216C1791.49 781.931 1795.59 783.012 1799.56 784.446V855.629ZM1767.03 841.459C1770.77 841.459 1773.66 840.624 1775.68 838.954C1777.92 836.931 1779.54 834.311 1780.34 831.401V798.142C1776.71 796.759 1772.84 796.105 1768.95 796.217C1766.72 796.123 1764.5 796.58 1762.49 797.548C1760.48 798.516 1758.74 799.965 1757.42 801.767C1754.67 805.458 1753.29 811.346 1753.28 819.431C1753.28 826.629 1754.46 832.099 1756.83 835.843C1757.87 837.611 1759.36 839.065 1761.16 840.054C1762.95 841.042 1764.98 841.527 1767.03 841.459Z" fill="#006EFF"/>
<path d="M1872.42 849.298C1868.8 851.996 1864.72 854.022 1860.37 855.282C1855.14 856.93 1849.68 857.753 1844.19 857.721C1832.26 857.721 1823.53 854.245 1818.03 847.294C1812.52 840.343 1809.75 830.816 1809.73 818.715C1809.73 805.7 1812.84 795.941 1819.05 789.437C1825.27 782.934 1833.99 779.683 1845.22 779.683C1848.91 779.68 1852.59 780.177 1856.16 781.159C1859.62 782.101 1862.84 783.763 1865.62 786.036C1868.54 788.539 1870.82 791.702 1872.28 795.264C1874.07 799.787 1874.92 804.626 1874.78 809.487C1874.77 811.689 1874.65 813.889 1874.41 816.079C1874.18 818.451 1873.79 820.916 1873.31 823.474H1828.95C1829.25 829.678 1830.85 834.362 1833.76 837.526C1836.66 840.676 1841.38 842.245 1847.88 842.245C1854.38 842.293 1860.73 840.332 1866.07 836.63L1872.42 849.298ZM1844.93 794.987C1839.89 794.987 1836.17 796.503 1833.76 799.509C1831.17 803.014 1829.65 807.202 1829.4 811.557H1856.91C1857.3 806.231 1856.49 802.141 1854.47 799.284C1852.45 796.428 1849.27 794.996 1844.93 794.987Z" fill="#006EFF"/>
<path d="M1926.23 799.762C1923.58 798.757 1920.79 798.209 1917.95 798.14C1914.84 798.029 1911.79 798.998 1909.31 800.882C1907.03 802.649 1905.4 805.112 1904.66 807.895V855.628H1885.44V781.729H1900.41L1902.63 791.483H1903.22C1904.68 788.138 1907.01 785.25 1909.98 783.126C1912.94 781.127 1916.45 780.095 1920.02 780.173C1923 780.247 1925.95 780.794 1928.75 781.794L1926.23 799.762Z" fill="#006EFF"/>
<path d="M1708.99 752.653L1703.12 758.525C1701.69 759.956 1701.69 762.276 1703.12 763.708L1708.99 769.58C1710.42 771.011 1712.75 771.011 1714.18 769.58L1720.05 763.708C1721.48 762.276 1721.48 759.956 1720.05 758.525L1714.18 752.653C1712.75 751.221 1710.42 751.221 1708.99 752.653Z" fill="#006EFF"/>
<path d="M1270.44 847.795V769.364H1279.65V798.316H1280.43C1281.11 797.295 1282.04 795.993 1283.24 794.41C1284.46 792.801 1286.21 791.372 1288.47 790.121C1290.76 788.844 1293.86 788.206 1297.76 788.206C1302.81 788.206 1307.26 789.444 1311.11 791.921C1314.96 794.397 1317.96 797.908 1320.12 802.452C1322.28 806.997 1323.36 812.358 1323.36 818.537C1323.36 824.766 1322.28 830.166 1320.12 834.736C1317.96 839.28 1314.97 842.803 1311.15 845.306C1307.32 847.782 1302.91 849.02 1297.91 849.02C1294.06 849.02 1290.98 848.395 1288.66 847.144C1286.35 845.867 1284.57 844.425 1283.32 842.816C1282.07 841.182 1281.11 839.829 1280.43 838.757H1279.34V847.795H1270.44ZM1279.49 818.383C1279.49 822.826 1280.16 826.745 1281.48 830.14C1282.81 833.51 1284.75 836.153 1287.3 838.068C1289.85 839.957 1292.97 840.901 1296.67 840.901C1300.52 840.901 1303.73 839.906 1306.31 837.914C1308.91 835.897 1310.86 833.191 1312.16 829.796C1313.49 826.374 1314.15 822.57 1314.15 818.383C1314.15 814.247 1313.5 810.52 1312.2 807.201C1310.92 803.856 1308.99 801.214 1306.38 799.274C1303.81 797.308 1300.57 796.325 1296.67 796.325C1292.92 796.325 1289.77 797.257 1287.22 799.12C1284.67 800.959 1282.74 803.537 1281.44 806.856C1280.14 810.15 1279.49 813.992 1279.49 818.383Z" fill="#006EFF"/>
<path d="M1341.24 869.853C1339.68 869.853 1338.28 869.726 1337.06 869.47C1335.84 869.241 1334.99 869.011 1334.52 868.781L1336.87 860.815C1339.1 861.377 1341.08 861.581 1342.8 861.428C1344.52 861.275 1346.04 860.522 1347.36 859.169C1348.72 857.841 1349.95 855.684 1351.07 852.697L1352.79 848.101L1330.62 788.972H1340.61L1357.16 835.846H1357.79L1374.33 788.972H1384.33L1358.88 856.373C1357.73 859.411 1356.32 861.926 1354.62 863.917C1352.93 865.934 1350.97 867.428 1348.73 868.398C1346.52 869.368 1344.02 869.853 1341.24 869.853Z" fill="#006EFF"/>
</svg>
