<svg id="Layer_1" data-name="Layer 1" xmlns="http://www.w3.org/2000/svg" viewBox="0 0 50 50"><defs><style>.cls-1{fill:#ddd;}</style></defs><title>icon_info</title><path class="cls-1" d="M25,0A25,25,0,1,1,0,25,25,25,0,0,1,25,0Zm0,47.32A22.32,22.32,0,1,0,2.68,25,22.33,22.33,0,0,0,25,47.32Z"/><path class="cls-1" d="M45,25A20,20,0,1,1,25,5,20,20,0,0,1,45,25Zm-16.8,9.51c-.49,0-.93,0-1.36,0a4,4,0,0,1-1.57-.34.94.94,0,0,1-.53-1.32l.09-.22c.45-1,.92-2.08,1.34-3.13a31.08,31.08,0,0,0,1.76-5.3,2.8,2.8,0,0,0-.13-2.14,3,3,0,0,0-1.41-1.37,2.85,2.85,0,0,0-2.09,0A9.46,9.46,0,0,0,21,22.84a.1.1,0,0,1,0,0,4.87,4.87,0,0,1,1.74-.13,1.41,1.41,0,0,1,1.34,1.49,4.76,4.76,0,0,1-.2,1.3A13.74,13.74,0,0,1,22.29,29a10.26,10.26,0,0,0-1.68,4.25,2.69,2.69,0,0,0,1.48,2.85,5,5,0,0,0,2,.51A4.49,4.49,0,0,0,28.18,34.51ZM25.8,18.91A2.78,2.78,0,1,0,23,16.13,2.77,2.77,0,0,0,25.8,18.91Z"/></svg>