<svg width="92" height="89" viewBox="0 0 92 89" fill="none" xmlns="http://www.w3.org/2000/svg">
<path d="M30 64C34.9885 60.2269 48.1724 54.9445 61 64" stroke="#d9342b" stroke-width="6" stroke-linecap="round"/>
<path d="M88.1962 44.2953C88.1962 67.0207 69.207 85.5906 45.5981 85.5906C21.9893 85.5906 3 67.0207 3 44.2953C3 21.5699 21.9893 3 45.5981 3C69.207 3 88.1962 21.5699 88.1962 44.2953Z" stroke="#d9342b" stroke-width="6"/>
<circle cx="29.2112" cy="42.8018" r="5.21121" fill="#d9342b"/>
<circle r="5.21121" transform="matrix(-1 0 0 1 62.7888 42.8018)" fill="#d9342b"/>
<path d="M25.1864 33.5906C29.7806 34.74 35.6864 38.0906 37 43.5906" stroke="#d9342b" stroke-width="6" stroke-linecap="round"/>
<path d="M66.8136 33.5906C62.2194 34.74 56.3136 38.0906 55 43.5906" stroke="#d9342b" stroke-width="6" stroke-linecap="round"/>
</svg>
