<svg xmlns="http://www.w3.org/2000/svg" width="20" height="20" fill="none" viewBox="0 0 20 20">
    <path fill="#9E9E9E" d="M10.08 17.38c-1.84 0-3.56-.72-4.86-2.02-.16-.16-.52-.58-.54-.62-.12-.14-.36-.48-.36-.5-1.76-2.7-1.38-6.32.9-8.6.02-.02.38-.36.52-.46l.06 3.68c0 .24.1.48.28.66.18.18.4.26.66.26.24 0 .48-.1.64-.28.18-.18.26-.42.26-.66l-.12-5.52c0-.5-.42-.9-.92-.9H1.2c-.52 0-.92.42-.92.92 0 .24.1.48.28.66.18.18.4.28.66.28h2.76l-.2.22c-1.56 1.62-2.42 3.76-2.42 6v.02c0 1.7.48 3.34 1.4 4.76.02.02.3.44.46.64.04.04.48.56.68.78 1.64 1.64 3.84 2.56 6.18 2.56.52 0 .92-.42.92-.92s-.4-.96-.92-.96zM19.52 16c-.18-.18-.4-.28-.66-.28H16.1l.2-.22c1.56-1.62 2.42-3.76 2.42-6v-.04c0-1.7-.48-3.34-1.4-4.76-.02-.02-.32-.44-.46-.64-.04-.04-.46-.56-.68-.78C14.52 1.64 12.34.74 10 .74c-.52 0-.92.42-.92.92 0 .52.42.92.92.92 1.84 0 3.56.72 4.86 2.02.16.16.52.58.54.62.12.14.36.48.36.5 1.76 2.7 1.38 6.32-.9 8.6-.02.02-.38.36-.52.46l-.08-3.66c0-.24-.1-.48-.28-.64-.18-.18-.42-.26-.66-.26-.52.02-.92.44-.9.94l.12 5.52c0 .5.42.9.92.9h5.4c.52 0 .92-.42.92-.92.02-.26-.08-.5-.26-.66z"/>
</svg>
