<svg id="Layer_1" data-name="Layer 1" xmlns="http://www.w3.org/2000/svg" viewBox="0 0 128 128"><defs><style>.cls-1{fill:#fff;}</style></defs><title>icon_upload</title><path class="cls-1" d="M31,58c.26-2.59.37-5.1.8-7.56a32.76,32.76,0,0,1,64-1.86,3.41,3.41,0,0,0,2.94,3,26.74,26.74,0,0,1-2.36,52.34,29,29,0,0,1-4.65.37q-29.62,0-59.24,0A23.2,23.2,0,0,1,9.31,84.7C7.18,72.37,16.17,60.05,28.58,58.29,29.41,58.17,30.25,58.09,31,58ZM62.19,99.43q14.7,0,29.42,0a26.12,26.12,0,0,0,3.85-.25,22,22,0,0,0-.95-43.6A2.5,2.5,0,0,1,91.89,53c-.14-.91-.29-1.81-.5-2.7a28.05,28.05,0,0,0-55,2A60,60,0,0,0,36.15,60a2.48,2.48,0,0,1-2.64,2.77H32a18.33,18.33,0,0,0,.37,36.65C42.3,99.45,52.25,99.43,62.19,99.43Z"/><path class="cls-1" d="M66.46,61v1.26q0,12.31,0,24.62a2.49,2.49,0,0,1-2.33,2.78A2.45,2.45,0,0,1,61.58,87c0-4.68,0-9.36,0-14V61c-.43.36-.71.59-1,.83-2.76,2.51-5.51,5-8.28,7.53a2.48,2.48,0,0,1-3,.36,2.11,2.11,0,0,1-1.14-2.39,3.44,3.44,0,0,1,.94-1.62c4.33-4,8.71-8,13.08-11.93a2.46,2.46,0,0,1,3.63,0q6.61,6,13.18,12a2.44,2.44,0,1,1-3.29,3.6c-2.77-2.49-5.52-5-8.28-7.52C67.17,61.59,66.9,61.37,66.46,61Z"/></svg>