<svg width="22" height="19" viewBox="0 0 22 19" fill="none" xmlns="http://www.w3.org/2000/svg">
<path d="M9.42773 12.7989H11.2237V14.5948H13.0196V12.7989H14.8155V11.0029H13.0196V9.20703H11.2237V11.0029H9.42773V12.7989Z" fill="#fff"/>
<path d="M21.2541 5.2539H19.5559V4.35156C19.5566 4.17237 19.5219 3.9948 19.4538 3.82905C19.3857 3.6633 19.2855 3.51263 19.1591 3.38568C19.0326 3.25873 18.8823 3.158 18.7168 3.08927C18.5513 3.02053 18.3739 2.98515 18.1947 2.98515H11.5277V2.53656C11.5245 1.9234 11.2789 1.33639 10.8445 0.903621C10.4102 0.470853 9.82224 0.227462 9.20907 0.226562H2.3186C1.70028 0.232911 1.10954 0.483469 0.675206 0.923601C0.240869 1.36373 -0.00183682 1.95774 1.04682e-05 2.57609L0.024073 16.2866C0.024073 16.8641 0.024073 18.3989 1.32517 18.5209H20.472C20.8745 18.5214 21.2608 18.3629 21.5469 18.08C21.8331 17.7971 21.9959 17.4125 22 17.0101V5.99125C21.9964 5.79533 21.9164 5.60856 21.7771 5.47081C21.6377 5.33305 21.45 5.25522 21.2541 5.2539ZM20.5098 6.74578V17.017C20.5098 17.0239 20.5071 17.0304 20.5023 17.0353C20.4975 17.0401 20.4909 17.0428 20.4841 17.0428H3.90157C3.9368 16.6256 3.94885 16.2067 3.93767 15.7881V6.7475L20.5098 6.74578ZM2.4561 16.2539C2.47845 16.7695 2.47157 17.0119 2.31688 17.2044C2.22957 17.2683 2.12434 17.3032 2.0161 17.3041H1.98688C1.93756 17.304 1.88874 17.294 1.8433 17.2748C1.79785 17.2557 1.75668 17.2276 1.7222 17.1923C1.64313 17.1116 1.50907 16.8864 1.50907 16.2934L1.49188 4.20031V2.57609C1.49184 2.35477 1.57857 2.14224 1.73346 1.98414C1.88834 1.82604 2.09904 1.73497 2.32032 1.73047H9.20907C9.42683 1.72955 9.63608 1.81494 9.79102 1.96795C9.94596 2.12096 10.034 2.32912 10.0358 2.54687V3.12609C10.0362 3.48773 10.1802 3.8344 10.4361 4.08996C10.692 4.34552 11.0388 4.48906 11.4005 4.48906H18.0641V5.2539H3.19001C2.99512 5.25385 2.80794 5.33008 2.66854 5.46627C2.52913 5.60247 2.44856 5.78781 2.44407 5.98265V15.7916C2.44407 15.9566 2.44407 16.1061 2.4561 16.2539Z" fill="#fff"/>
</svg>
