<svg id="Layer_1" data-name="Layer 1" xmlns="http://www.w3.org/2000/svg" viewBox="0 0 128 128"><defs><style>.cls-1{fill:#333;}</style></defs><title>icons-ged</title><path class="cls-1" d="M83.33,3.25A10.91,10.91,0,0,0,75.45,0H23.61a10.91,10.91,0,0,0-7.88,3.25,10.93,10.93,0,0,0-3.25,7.87V116.88A11.14,11.14,0,0,0,23.61,128H104.4a11.13,11.13,0,0,0,11.12-11.12V40.06a11.1,11.1,0,0,0-3.39-7.87ZM78.62,13.32a1.07,1.07,0,0,1,.67-1,1,1,0,0,1,.42-.09,1.07,1.07,0,0,1,.76.32L103,35.05a1.07,1.07,0,0,1,.23,1.18,1.09,1.09,0,0,1-1,.67H82a3.38,3.38,0,0,1-3.42-3.42ZM104.4,119.61H23.61A2.6,2.6,0,0,1,21,117V11.12a2.7,2.7,0,0,1,.73-1.86,2.42,2.42,0,0,1,1.87-.73H69a1.08,1.08,0,0,1,1.08,1.08V33.48a12,12,0,0,0,12,12h23.73a1.08,1.08,0,0,1,1.08,1.08v70C106.85,118.37,105.83,119.61,104.4,119.61Z"/><path class="cls-1" d="M29.12,105V69c0-2.63,1.74-3.5,5.05-4.15.47-.09,25.5-5,37.54-7.42l11.53-2.28,2,10.13L57.35,70.84l0,.27H85.55c0,.31.06.49.06.67q0,16.05,0,32.09c0,5.33-2,7.74-7,7.74H36.19C31.49,111.61,29.12,109.13,29.12,105Zm51-20.7H34.63v1.27q0,8.55,0,17.1c0,2.52.85,3.38,3.36,3.38H76.94c2.24,0,3.17-.93,3.17-3.14V84.29ZM54.64,73.88h-6.8a.8.8,0,0,0-.49.18l-4.56,4.58c2.44,0,4.59,0,6.74,0a1.06,1.06,0,0,0,.65-.34C51.6,76.92,53,75.52,54.64,73.88Zm2.23,4.78c1,0,1.62,0,2.24,0,1.62,0,3.41.39,4.79-.18s2.37-2.12,3.52-3.25c.4-.38.78-.79,1.33-1.35-2.37,0-4.43,0-6.48,0a1.24,1.24,0,0,0-.8.22C60,75.53,58.56,77,56.87,78.66Zm26.05-4.78H76.17a.77.77,0,0,0-.5.16c-1.46,1.46-2.91,2.93-4.56,4.6,2.43,0,4.57,0,6.72,0a1.06,1.06,0,0,0,.65-.34C79.89,76.92,81.29,75.52,82.92,73.88ZM82,63.08c-1.9-1.27-3.57-2.4-5.25-3.5a1.07,1.07,0,0,0-.71-.11c-2.11.39-4.2.81-6.56,1.27,1.54,1,2.91,1.88,4.19,2.84a3.18,3.18,0,0,0,2.94.62C78.3,63.76,80,63.48,82,63.08ZM54.24,68.59c-1.91-1.28-3.57-2.4-5.25-3.51a1,1,0,0,0-.61-.13c-2.13.4-4.26.83-6.66,1.3,1.57,1,3,1.88,4.23,2.85a3.13,3.13,0,0,0,2.94.61C50.57,69.28,52.29,69,54.24,68.59Zm1.38-5.09L60.83,67c.15.1.35.23.5.2,2.19-.42,4.37-.87,6.8-1.36-1.88-1.26-3.52-2.36-5.18-3.45a1.09,1.09,0,0,0-.71-.19C60.12,62.59,58,63,55.62,63.5Z"/><path class="cls-1" d="M54.23,102.2V87.26l12.18,7.47Z"/></svg>