<svg id="Layer_1" data-name="Layer 1" xmlns="http://www.w3.org/2000/svg" viewBox="0 0 128 128"><defs><style>.cls-1{fill:#333;}</style></defs><title>icons-ged</title><path class="cls-1" d="M83.33,3.25A10.91,10.91,0,0,0,75.45,0H23.61a10.91,10.91,0,0,0-7.88,3.25,10.93,10.93,0,0,0-3.25,7.87V116.88A11.14,11.14,0,0,0,23.61,128H104.4a11.13,11.13,0,0,0,11.12-11.12V40.06a11.1,11.1,0,0,0-3.39-7.87ZM78.62,13.32a1.07,1.07,0,0,1,.67-1,1,1,0,0,1,.42-.09,1.07,1.07,0,0,1,.76.32L103,35.05a1.07,1.07,0,0,1,.23,1.18,1.09,1.09,0,0,1-1,.67H82a3.38,3.38,0,0,1-3.42-3.42ZM104.4,119.61H23.61A2.6,2.6,0,0,1,21,117V11.12a2.7,2.7,0,0,1,.73-1.86,2.42,2.42,0,0,1,1.87-.73H69a1.08,1.08,0,0,1,1.08,1.08V33.48a12,12,0,0,0,12,12h23.73a1.08,1.08,0,0,1,1.08,1.08v70C106.85,118.37,105.83,119.61,104.4,119.61Z"/><path class="cls-1" d="M48,63.38,35,96.89h6.07a2.53,2.53,0,0,0,1.63-.52,2.72,2.72,0,0,0,.9-1.16l2-5.84H58.31l2,5.84a3,3,0,0,0,1,1.21,2.63,2.63,0,0,0,1.63.47h6l-13-33.51Zm-.59,20.7L50.45,75q.34-.87.72-2.07c.26-.8.51-1.66.75-2.6.26.92.52,1.78.78,2.56s.51,1.48.74,2.06l3.08,9.18Z"/><path class="cls-1" d="M85.16,73.78a11,11,0,0,0-2.5-.85,13.13,13.13,0,0,0-2.86-.3,13.45,13.45,0,0,0-3.89.54,9.69,9.69,0,0,0-3.12,1.54,7.29,7.29,0,0,0-2.08,2.44,7.25,7.25,0,0,0,.31,7A7.71,7.71,0,0,0,74,86.79a6.6,6.6,0,0,0-1.43.9,5.73,5.73,0,0,0-1,1.06A4.39,4.39,0,0,0,71,89.89,3.78,3.78,0,0,0,70.78,91a4,4,0,0,0,.51,2.14,3.91,3.91,0,0,0,1.38,1.36,6.42,6.42,0,0,0-2.58,1.7,3.92,3.92,0,0,0-.92,2.65,4.74,4.74,0,0,0,.64,2.34,5.9,5.9,0,0,0,2,2,11.57,11.57,0,0,0,3.39,1.39,19,19,0,0,0,4.84.53,16.31,16.31,0,0,0,5.06-.72,12.29,12.29,0,0,0,3.72-1.92,8.13,8.13,0,0,0,2.3-2.74,6.92,6.92,0,0,0,.78-3.15,5.61,5.61,0,0,0-.64-2.84A5,5,0,0,0,89.55,92a7.52,7.52,0,0,0-2.4-1,22.81,22.81,0,0,0-2.75-.43c-.94-.08-1.86-.13-2.75-.16s-1.7-.07-2.4-.13a6.45,6.45,0,0,1-1.71-.37A.9.9,0,0,1,76.9,89a1.28,1.28,0,0,1,.78-1,15.78,15.78,0,0,0,2.12.13,12.58,12.58,0,0,0,3.79-.54A9.42,9.42,0,0,0,86.66,86a7.23,7.23,0,0,0,2-2.42,6.83,6.83,0,0,0,.75-3.22,7,7,0,0,0-.33-2.14l1.75-.39A2.33,2.33,0,0,0,92,77.32a1.31,1.31,0,0,0,.33-.94v-2.6Zm-5.32,22a26.79,26.79,0,0,1,2.74.19,6.3,6.3,0,0,1,2,.52,1.31,1.31,0,0,1,.76,1.24,2.13,2.13,0,0,1-.23,1,1.92,1.92,0,0,1-.82.77,5.16,5.16,0,0,1-1.57.51,14.63,14.63,0,0,1-2.53.18,12.83,12.83,0,0,1-2.36-.17,5,5,0,0,1-1.49-.47,1.91,1.91,0,0,1-.77-.71,2,2,0,0,1-.22-.92,2.07,2.07,0,0,1,.42-1.28,4.08,4.08,0,0,1,1.08-1C77.83,95.73,78.83,95.8,79.84,95.82Zm2.52-13a3.28,3.28,0,0,1-2.56.88,4.23,4.23,0,0,1-1.51-.24,2.83,2.83,0,0,1-1.05-.67,2.62,2.62,0,0,1-.61-1,3.87,3.87,0,0,1-.19-1.26,3.15,3.15,0,0,1,.79-2.28,4.38,4.38,0,0,1,5.13,0,3.15,3.15,0,0,1,.8,2.28A3.31,3.31,0,0,1,82.36,82.83Z"/></svg>