<svg id="Layer_1" data-name="Layer 1" xmlns="http://www.w3.org/2000/svg" viewBox="0 0 128 128"><defs><style>.cls-1{fill:#333;}</style></defs><title>icons-ged</title><path class="cls-1" d="M83.33,3.25A10.91,10.91,0,0,0,75.45,0H23.61a10.91,10.91,0,0,0-7.88,3.25,10.93,10.93,0,0,0-3.25,7.87V116.88A11.14,11.14,0,0,0,23.61,128H104.4a11.13,11.13,0,0,0,11.12-11.12V40.06a11.1,11.1,0,0,0-3.39-7.87ZM78.62,13.32a1.07,1.07,0,0,1,.67-1,1,1,0,0,1,.42-.09,1.07,1.07,0,0,1,.76.32L103,35.05a1.07,1.07,0,0,1,.23,1.18,1.09,1.09,0,0,1-1,.67H82a3.38,3.38,0,0,1-3.42-3.42ZM104.4,119.61H23.61A2.6,2.6,0,0,1,21,117V11.12a2.7,2.7,0,0,1,.73-1.86,2.42,2.42,0,0,1,1.87-.73H69a1.08,1.08,0,0,1,1.08,1.08V33.48a12,12,0,0,0,12,12h23.73a1.08,1.08,0,0,1,1.08,1.08v70C106.85,118.37,105.83,119.61,104.4,119.61Z"/><path class="cls-1" d="M97.24,81.11,77.39,72.54a2.31,2.31,0,0,0-.94-.2h0a1.94,1.94,0,0,0-1.93,2.09v3.09a3.54,3.54,0,0,0,2.16,3.15L88.8,85.36,76.67,90.13a3.55,3.55,0,0,0-2.15,3.14v3.16a1.94,1.94,0,0,0,1.92,2.08,2.33,2.33,0,0,0,1-.21l19.85-8.65a3.67,3.67,0,0,0,2.1-3.19V84.3A3.65,3.65,0,0,0,97.24,81.11Z"/><path class="cls-1" d="M51.55,72.34h0a2.48,2.48,0,0,0-.94.2L30.76,81.13a3.67,3.67,0,0,0-2.1,3.19v2.2a3.65,3.65,0,0,0,2.1,3.19L50.61,98.3a2.37,2.37,0,0,0,1,.21,2,2,0,0,0,1.92-2.09V93.29a3.53,3.53,0,0,0-2.15-3.15L39.25,85.39l12.06-4.64a3.54,3.54,0,0,0,2.17-3.15V74.43A2,2,0,0,0,51.55,72.34Z"/><path class="cls-1" d="M68.3,62.25a3.23,3.23,0,0,0-3,1.45A15.13,15.13,0,0,0,64,67.54L56,100.29a19.45,19.45,0,0,0-.6,3.49c0,2.21,1.41,3.47,3.87,3.47a3.62,3.62,0,0,0,2.41-.76,4.12,4.12,0,0,0,1.2-1.9c.2-.65.44-1.53.71-2.62l7.95-32.75a15.77,15.77,0,0,0,.63-3.44,3.36,3.36,0,0,0-1.07-2.6A4.14,4.14,0,0,0,68.3,62.25Z"/></svg>