<svg id="Layer_1" data-name="Layer 1" xmlns="http://www.w3.org/2000/svg" viewBox="0 0 128 128"><defs><style>.cls-1{fill:#333;}</style></defs><title>icons-ged</title><path class="cls-1" d="M51.82,90.56A14.46,14.46,0,0,0,66.27,76.11V53.45a14.45,14.45,0,1,0-28.9,0V76.11A14.46,14.46,0,0,0,51.82,90.56ZM43.6,53.45a8.22,8.22,0,1,1,16.44,0V76.11a8.22,8.22,0,0,1-16.44,0Z"/><path class="cls-1" d="M75,79.6a3.12,3.12,0,0,0-6.23,0c0,7.9-7.6,14.32-16.94,14.32S34.89,87.5,34.89,79.6a3.12,3.12,0,0,0-6.24,0c0,10.31,8.59,19,20.06,20.33v6.9h-4.3a3.12,3.12,0,0,0,0,6.23H59.32a3.12,3.12,0,1,0,0-6.23H54.94v-6.9C66.4,98.57,75,89.91,75,79.6Z"/><path class="cls-1" d="M83.33,3.25A10.91,10.91,0,0,0,75.45,0H23.61a10.91,10.91,0,0,0-7.88,3.25,10.93,10.93,0,0,0-3.25,7.87V116.88A11.14,11.14,0,0,0,23.61,128H104.4a11.13,11.13,0,0,0,11.12-11.12V40.06a11.1,11.1,0,0,0-3.39-7.87ZM78.62,13.32a1.07,1.07,0,0,1,.67-1,1,1,0,0,1,.42-.09,1.07,1.07,0,0,1,.76.32L103,35.05a1.07,1.07,0,0,1,.23,1.18,1.09,1.09,0,0,1-1,.67H82a3.38,3.38,0,0,1-3.42-3.42ZM104.4,119.61H23.61A2.6,2.6,0,0,1,21,117V11.12a2.7,2.7,0,0,1,.73-1.86,2.42,2.42,0,0,1,1.87-.73H69a1.08,1.08,0,0,1,1.08,1.08V33.48a12,12,0,0,0,12,12h23.73a1.08,1.08,0,0,1,1.08,1.08v70C106.85,118.37,105.83,119.61,104.4,119.61Z"/></svg>