<svg id="Layer_1" data-name="Layer 1" xmlns="http://www.w3.org/2000/svg" viewBox="0 0 128 128"><defs><style>.cls-1{fill:#333;}</style></defs><title>icons-ged</title><path class="cls-1" d="M123.66,41h-9.88V35.75a7.92,7.92,0,0,0-7.92-7.95H67.07V25.19A13.51,13.51,0,0,0,53.58,11.75H13.49A13.63,13.63,0,0,0,0,25.42l.14,79.77c0,3.36,0,12.29,7.57,13h111.4a8.88,8.88,0,0,0,8.89-8.79V45.29A4.37,4.37,0,0,0,123.66,41Zm-4.33,8.68v59.76a.15.15,0,0,1-.15.15H22.7a65.85,65.85,0,0,0,.21-7.3V49.69ZM14.29,105c.13,3,.09,4.41-.81,5.53a3,3,0,0,1-1.75.58h-.17a2.16,2.16,0,0,1-1.54-.65c-.46-.47-1.24-1.78-1.24-5.23l-.1-70.36V25.42A4.92,4.92,0,0,1,13.5,20.5H53.58a4.79,4.79,0,0,1,4.81,4.75v3.37a7.94,7.94,0,0,0,7.94,7.93H105.1V41H18.56a4.34,4.34,0,0,0-4.34,4.24v57.07C14.22,103.27,14.22,104.14,14.29,105Z"/></svg>