<svg id="Layer_1" data-name="Layer 1" xmlns="http://www.w3.org/2000/svg" viewBox="0 0 128 128"><defs><style>.cls-1{fill:#333;}</style></defs><title>icons-ged</title><path class="cls-1" d="M83.33,3.25A10.91,10.91,0,0,0,75.45,0H23.61a10.91,10.91,0,0,0-7.88,3.25,10.93,10.93,0,0,0-3.25,7.87V116.88A11.14,11.14,0,0,0,23.61,128H104.4a11.13,11.13,0,0,0,11.12-11.12V40.06a11.1,11.1,0,0,0-3.39-7.87ZM78.62,13.32a1.07,1.07,0,0,1,.67-1,1,1,0,0,1,.42-.09,1.07,1.07,0,0,1,.76.32L103,35.05a1.07,1.07,0,0,1,.23,1.18,1.09,1.09,0,0,1-1,.67H82a3.38,3.38,0,0,1-3.42-3.42ZM104.4,119.61H23.61A2.6,2.6,0,0,1,21,117V11.12a2.7,2.7,0,0,1,.73-1.86,2.42,2.42,0,0,1,1.87-.73H69a1.08,1.08,0,0,1,1.08,1.08V33.48a12,12,0,0,0,12,12h23.73a1.08,1.08,0,0,1,1.08,1.08v70C106.85,118.37,105.83,119.61,104.4,119.61Z"/><path class="cls-1" d="M90.67,90.38a2.32,2.32,0,0,0,0-.53s0-.07,0-.11,0-.12,0-.17c-.33-1-.67-2-1-3-.81-2.43-1.61-4.87-2.42-7.3-1-2.94-2-5.87-2.93-8.81q-1.26-3.82-2.54-7.65c-.41-1.24-.8-2.48-1.23-3.71,0,0,0,0,0,0a3.26,3.26,0,0,0-3-2.33h-30c-1.38,0-2.77,0-4.15,0h-.06A3.25,3.25,0,0,0,40.06,59c-.31,1-.62,2-.94,3-.76,2.44-1.52,4.87-2.27,7.31-.91,2.94-1.83,5.89-2.75,8.83l-2.37,7.63c-.38,1.24-.79,2.47-1.16,3.71a.43.43,0,0,0,0,0c0,.05,0,.1,0,.15l0,.22a2.29,2.29,0,0,0-.05.52v16.68a3.22,3.22,0,0,0,3.17,3.17H87.51a3.3,3.3,0,0,0,1-.17,2.83,2.83,0,0,0,1.27-.75,3.24,3.24,0,0,0,.93-2.25V90.42h0A0,0,0,0,0,90.67,90.38ZM39.89,80.91c.91-3,1.83-5.89,2.74-8.84L45,64.44,45.45,63H75.08c.08.24.15.49.24.73.8,2.42,1.61,4.86,2.42,7.29,1,2.94,2,5.87,2.93,8.82q1.22,3.69,2.45,7.39H37.92Q38.89,84.07,39.89,80.91ZM76.34,104H36.79V93.59H84.34V104h-8Z"/><path class="cls-1" d="M79,96.45c-.17-.17-.7-.52-.7-.54l-.36-.15a2.56,2.56,0,0,0-.4-.16l-.44-.06a3.18,3.18,0,0,0-.43-.06h0l-.85.12h0l-.76.32h0a2.71,2.71,0,0,0-.66.51,4.23,4.23,0,0,0-.52.68,3.63,3.63,0,0,0-.41,1.65,2.34,2.34,0,0,0,.09.75s0,.08,0,.13.13.3.16.4a2.35,2.35,0,0,0,.18.4c.16.22.33.43.49.64a0,0,0,0,1,0,0h0l.64.49a1.86,1.86,0,0,0,.78.33,3,3,0,0,0,.89.13,2.67,2.67,0,0,0,.89-.13,1.86,1.86,0,0,0,.78-.33l.64-.49h0v0c.16-.21.33-.42.49-.64a2.26,2.26,0,0,0,.18-.4,4.15,4.15,0,0,0,.16-.4c0-.15,0-.29.06-.44a2.2,2.2,0,0,0,0-.44,2.43,2.43,0,0,0-.12-.89A3.2,3.2,0,0,0,79,96.45Zm.53,1.29.09.21v0A2.77,2.77,0,0,0,79.51,97.74Zm-.23-.53,0,0s0,.08,0,.13A1,1,0,0,0,79.28,97.21Z"/><path class="cls-1" d="M78.28,95.91l0,0Z"/><path class="cls-1" d="M68,95.91l0,0Z"/><path class="cls-1" d="M68.74,96.45c-.17-.17-.7-.52-.7-.54l-.36-.15a2.56,2.56,0,0,0-.4-.16l-.44-.06a3.18,3.18,0,0,0-.43-.06h0l-.84.12h0l-.76.32h0a2.71,2.71,0,0,0-.66.51,4.23,4.23,0,0,0-.52.68,3.63,3.63,0,0,0-.41,1.65,2.34,2.34,0,0,0,.09.75s0,.08,0,.13a4,4,0,0,0,.17.4,1.85,1.85,0,0,0,.17.4c.16.22.33.43.49.64a0,0,0,0,1,0,0h0l.64.49a1.86,1.86,0,0,0,.78.33,3,3,0,0,0,.89.13,2.67,2.67,0,0,0,.89-.13,1.86,1.86,0,0,0,.78-.33l.64-.49h0v0c.16-.21.33-.42.49-.64a2.26,2.26,0,0,0,.18-.4,4.15,4.15,0,0,0,.16-.4c0-.15,0-.29.06-.44a2.2,2.2,0,0,0,0-.44,2.43,2.43,0,0,0-.12-.89A3.2,3.2,0,0,0,68.74,96.45Zm.53,1.29.09.21v0A2.77,2.77,0,0,0,69.27,97.74ZM69,97.21l0,0s0,.08,0,.13A1,1,0,0,0,69,97.21Z"/></svg>