<svg id="Layer_1" data-name="Layer 1" xmlns="http://www.w3.org/2000/svg" viewBox="0 0 128 128"><defs><style>.cls-1{fill:#333;}</style></defs><title>icons-ged</title><path class="cls-1" d="M83.33,3.25A10.91,10.91,0,0,0,75.45,0H23.61a10.91,10.91,0,0,0-7.88,3.25,10.93,10.93,0,0,0-3.25,7.87V116.88A11.14,11.14,0,0,0,23.61,128H104.4a11.13,11.13,0,0,0,11.12-11.12V40.06a11.1,11.1,0,0,0-3.39-7.87ZM78.62,13.32a1.07,1.07,0,0,1,.67-1,1,1,0,0,1,.42-.09,1.07,1.07,0,0,1,.76.32L103,35.05a1.07,1.07,0,0,1,.23,1.18,1.09,1.09,0,0,1-1,.67H82a3.38,3.38,0,0,1-3.42-3.42ZM104.4,119.61H23.61A2.6,2.6,0,0,1,21,117V11.12a2.7,2.7,0,0,1,.73-1.86,2.42,2.42,0,0,1,1.87-.73H69a1.08,1.08,0,0,1,1.08,1.08V33.48a12,12,0,0,0,12,12h23.73a1.08,1.08,0,0,1,1.08,1.08v70C106.85,118.37,105.83,119.61,104.4,119.61Z"/><path class="cls-1" d="M60.4,53.84a28.18,28.18,0,0,0-6.36,0,29.7,29.7,0,0,0,0,59.06,26.23,26.23,0,0,0,3.19.17,25.8,25.8,0,0,0,3.17-.17,29.7,29.7,0,0,0,0-59.06Zm-1.78,53.4a20.71,20.71,0,0,1-2.84,0,39.73,39.73,0,0,1-4.88-9.72H63.54A39.4,39.4,0,0,1,58.62,107.24Zm-9.2-15.38a39.82,39.82,0,0,1-.61-5.66H65.66A39.85,39.85,0,0,1,65,91.86Zm6.71-32.57,1.1,0,1.09,0a39.63,39.63,0,0,1,5.15,9.94H51A39.27,39.27,0,0,1,56.13,59.29ZM65,74.88a39.56,39.56,0,0,1,.66,5.66H48.81a41,41,0,0,1,.66-5.66ZM43.18,80.54H33.43a24,24,0,0,1,1.34-5.66h9A42.88,42.88,0,0,0,43.18,80.54ZM33.47,86.2h9.7a46.52,46.52,0,0,0,.53,5.66H34.87A24.68,24.68,0,0,1,33.47,86.2Zm37.83,0h9.76a24,24,0,0,1-1.41,5.66H70.77A44.6,44.6,0,0,0,71.3,86.2Zm0-5.66a44.66,44.66,0,0,0-.57-5.66h9a24.22,24.22,0,0,1,1.34,5.66Zm5.46-11.31H69.41a44.35,44.35,0,0,0-3.52-8.42A24.06,24.06,0,0,1,76.75,69.23ZM48.54,60.84a45.58,45.58,0,0,0-3.49,8.39H37.78A24,24,0,0,1,48.54,60.84ZM38,97.51h7a43.92,43.92,0,0,0,3.19,7.94A24,24,0,0,1,38,97.51Zm28.32,8a45,45,0,0,0,3.19-8h7A24,24,0,0,1,66.31,105.48Z"/></svg>