<svg id="Layer_1" data-name="Layer 1" xmlns="http://www.w3.org/2000/svg" viewBox="0 0 128 128"><defs><style>.cls-1{fill:#333;}</style></defs><title>icons-ged</title><path class="cls-1" d="M83.33,3.25A10.91,10.91,0,0,0,75.45,0H23.61a10.91,10.91,0,0,0-7.88,3.25,10.93,10.93,0,0,0-3.25,7.87V116.88A11.14,11.14,0,0,0,23.61,128H104.4a11.13,11.13,0,0,0,11.12-11.12V40.06a11.1,11.1,0,0,0-3.39-7.87ZM78.62,13.32a1.07,1.07,0,0,1,.67-1,1,1,0,0,1,.42-.09,1.07,1.07,0,0,1,.76.32L103,35.05a1.07,1.07,0,0,1,.23,1.18,1.09,1.09,0,0,1-1,.67H82a3.38,3.38,0,0,1-3.42-3.42ZM104.4,119.61H23.61A2.6,2.6,0,0,1,21,117V11.12a2.7,2.7,0,0,1,.73-1.86,2.42,2.42,0,0,1,1.87-.73H69a1.08,1.08,0,0,1,1.08,1.08V33.48a12,12,0,0,0,12,12h23.73a1.08,1.08,0,0,1,1.08,1.08v70C106.85,118.37,105.83,119.61,104.4,119.61Z"/><path class="cls-1" d="M92,64.3a8,8,0,0,0-8-7.33H39.68a8,8,0,0,0-8,8v36.8a8,8,0,0,0,8,8H84.05a8,8,0,0,0,8-7.27l0-.19V64.48ZM81.87,84.43,80.1,83.1a3.78,3.78,0,0,0-4.8,0l-8.94,6.69-.46.34c-1.68-2.06-3.35-4.1-5-6.15L53.5,74.89a3.73,3.73,0,0,0-5.9-.12q-5,5.48-9.92,10.94V65a2,2,0,0,1,2-2H84.05a2,2,0,0,1,2,2v22.6Z"/><path class="cls-1" d="M77,71.32a3,3,0,1,0,3,3A3,3,0,0,0,77,71.32Z"/></svg>