<svg id="Layer_1" data-name="Layer 1" xmlns="http://www.w3.org/2000/svg" viewBox="0 0 128 128"><defs><style>.cls-1{fill:#333;}</style></defs><title>icons-ged</title><path class="cls-1" d="M83.33,3.25A10.91,10.91,0,0,0,75.45,0H23.61a10.91,10.91,0,0,0-7.88,3.25,10.93,10.93,0,0,0-3.25,7.87V116.88A11.14,11.14,0,0,0,23.61,128H104.4a11.13,11.13,0,0,0,11.12-11.12V40.06a11.1,11.1,0,0,0-3.39-7.87ZM78.62,13.32a1.07,1.07,0,0,1,.67-1,1,1,0,0,1,.42-.09,1.07,1.07,0,0,1,.76.32L103,35.05a1.07,1.07,0,0,1,.23,1.18,1.09,1.09,0,0,1-1,.67H82a3.38,3.38,0,0,1-3.42-3.42ZM104.4,119.61H23.61A2.6,2.6,0,0,1,21,117V11.12a2.7,2.7,0,0,1,.73-1.86,2.42,2.42,0,0,1,1.87-.73H69a1.08,1.08,0,0,1,1.08,1.08V33.48a12,12,0,0,0,12,12h23.73a1.08,1.08,0,0,1,1.08,1.08v70C106.85,118.37,105.83,119.61,104.4,119.61Z"/><path class="cls-1" d="M49.42,85.48H32.05a1,1,0,0,0-1,1v4a1,1,0,0,0,1,1H37.2v16.83a1,1,0,0,0,1,1h5.07a1,1,0,0,0,1-1V91.5h5.15a1,1,0,0,0,1-1v-4A1,1,0,0,0,49.42,85.48Z"/><path class="cls-1" d="M68.71,96.89,75.22,87a1,1,0,0,0-.84-1.55H69.52a2.15,2.15,0,0,0-1.88,1.12l-3.37,5.78-3.46-5.86a2.14,2.14,0,0,0-.79-.79,2.47,2.47,0,0,0-1.21-.25H53.74a1,1,0,0,0-.88.52,1,1,0,0,0,0,1L59.32,97.1l-6.7,10.7a1,1,0,0,0,.85,1.53h4.74a2.16,2.16,0,0,0,1.39-.47,3.14,3.14,0,0,0,.71-.84l3.51-6.09L67.29,108a2.88,2.88,0,0,0,.75.88,2.25,2.25,0,0,0,1.42.45h5.07a1,1,0,0,0,.85-1.52Z"/><path class="cls-1" d="M96,85.48H78.58a1,1,0,0,0-1,1v4a1,1,0,0,0,1,1h5.15v16.83a1,1,0,0,0,1,1H89.8a1,1,0,0,0,1-1V91.5H96a1,1,0,0,0,1-1v-4A1,1,0,0,0,96,85.48Z"/></svg>