<svg id="Layer_1" data-name="Layer 1" xmlns="http://www.w3.org/2000/svg" viewBox="0 0 128 128"><defs><style>.cls-1{fill:#333;}</style></defs><title>icons-ged</title><path class="cls-1" d="M83.33,3.25A10.91,10.91,0,0,0,75.45,0H23.61a10.91,10.91,0,0,0-7.88,3.25,10.93,10.93,0,0,0-3.25,7.87V116.88A11.14,11.14,0,0,0,23.61,128H104.4a11.13,11.13,0,0,0,11.12-11.12V40.06a11.1,11.1,0,0,0-3.39-7.87ZM78.62,13.32a1.07,1.07,0,0,1,.67-1,1,1,0,0,1,.42-.09,1.07,1.07,0,0,1,.76.32L103,35.05a1.07,1.07,0,0,1,.23,1.18,1.09,1.09,0,0,1-1,.67H82a3.38,3.38,0,0,1-3.42-3.42ZM104.4,119.61H23.61A2.6,2.6,0,0,1,21,117V11.12a2.7,2.7,0,0,1,.73-1.86,2.42,2.42,0,0,1,1.87-.73H69a1.08,1.08,0,0,1,1.08,1.08V33.48a12,12,0,0,0,12,12h23.73a1.08,1.08,0,0,1,1.08,1.08v70C106.85,118.37,105.83,119.61,104.4,119.61Z"/><path class="cls-1" d="M54.72,42.71a1.24,1.24,0,0,1-1.23,1.23H50.11a1.23,1.23,0,0,1-1.23-1.23V39.34a1.23,1.23,0,0,1,1.23-1.23h3.38a1.24,1.24,0,0,1,1.23,1.23Z"/><path class="cls-1" d="M48.72,36.71a1.24,1.24,0,0,1-1.23,1.23H44.11a1.23,1.23,0,0,1-1.23-1.23V33.34a1.23,1.23,0,0,1,1.23-1.23h3.38a1.24,1.24,0,0,1,1.23,1.23Z"/><path class="cls-1" d="M54.72,30.71a1.24,1.24,0,0,1-1.23,1.23H50.11a1.23,1.23,0,0,1-1.23-1.23V27.34a1.23,1.23,0,0,1,1.23-1.23h3.38a1.24,1.24,0,0,1,1.23,1.23Z"/><path class="cls-1" d="M48.72,24.71a1.23,1.23,0,0,1-1.23,1.23H44.11a1.23,1.23,0,0,1-1.23-1.23V21.34a1.23,1.23,0,0,1,1.23-1.23h3.38a1.23,1.23,0,0,1,1.23,1.23Z"/><path class="cls-1" d="M54.72,18.71a1.24,1.24,0,0,1-1.23,1.23H50.11a1.23,1.23,0,0,1-1.23-1.23V15.34a1.23,1.23,0,0,1,1.23-1.23h3.38a1.24,1.24,0,0,1,1.23,1.23Z"/><path class="cls-1" d="M58,60.8,54.48,47.53H48.72V45.34a1.23,1.23,0,0,0-1.23-1.23H44.11a1.23,1.23,0,0,0-1.23,1.23v3.07L39.6,60.8c-1.49,6,3,9.48,9.2,9.48S59.48,66.77,58,60.8ZM43.11,62.93c0-5,11.37-5.1,11.37,0C54.48,67.76,43.11,67.72,43.11,62.93Z"/><path class="cls-1" d="M55.08,85.48H38.73a1,1,0,0,0-1,1v3.9a1,1,0,0,0,1,1h8l-9.18,13.11a3.54,3.54,0,0,0-.47.88,3.21,3.21,0,0,0-.17,1v2a1,1,0,0,0,1,1H54.75a1,1,0,0,0,1-1v-3.9a1,1,0,0,0-1-1H46.26l9.16-13.09a4.24,4.24,0,0,0,.48-.95,3.41,3.41,0,0,0,.18-1.09V86.48A1,1,0,0,0,55.08,85.48Z"/><rect class="cls-1" x="60.44" y="85.48" width="7.1" height="23.86" rx="1"/><path class="cls-1" d="M91.11,90.44a7,7,0,0,0-1.85-2.65,8.71,8.71,0,0,0-3.08-1.71,13.64,13.64,0,0,0-4.28-.6H74.19a1,1,0,0,0-1,1v21.86a1,1,0,0,0,1,1h5.07a1,1,0,0,0,1-1V102H81.9a13.49,13.49,0,0,0,4.23-.6,8.45,8.45,0,0,0,3.1-1.73A7,7,0,0,0,91.09,97a9.16,9.16,0,0,0,.6-3.36A8.76,8.76,0,0,0,91.11,90.44Zm-10.85.84H81.9a4.28,4.28,0,0,1,1.33.18,2,2,0,0,1,.78.46,1.74,1.74,0,0,1,.44.68,3,3,0,0,1,.17,1,2.76,2.76,0,0,1-.61,2,2.8,2.8,0,0,1-2.11.63H80.26Z"/></svg>