<svg id="Layer_1" data-name="Layer 1" xmlns="http://www.w3.org/2000/svg" viewBox="0 0 128 128"><defs><style>.cls-1,.cls-2{fill:#333;}.cls-2{stroke:#333;stroke-linecap:round;stroke-linejoin:round;stroke-width:2px;}</style></defs><title>icons-ged</title><path class="cls-1" d="M83.33,3.25A10.91,10.91,0,0,0,75.45,0H23.61a10.91,10.91,0,0,0-7.88,3.25,10.93,10.93,0,0,0-3.25,7.87V116.88A11.14,11.14,0,0,0,23.61,128H104.4a11.13,11.13,0,0,0,11.12-11.12V40.06a11.1,11.1,0,0,0-3.39-7.87ZM78.62,13.32a1.07,1.07,0,0,1,.67-1,1,1,0,0,1,.42-.09,1.07,1.07,0,0,1,.76.32L103,35.05a1.07,1.07,0,0,1,.23,1.18,1.09,1.09,0,0,1-1,.67H82a3.38,3.38,0,0,1-3.42-3.42ZM104.4,119.61H23.61A2.6,2.6,0,0,1,21,117V11.12a2.7,2.7,0,0,1,.73-1.86,2.42,2.42,0,0,1,1.87-.73H69a1.08,1.08,0,0,1,1.08,1.08V33.48a12,12,0,0,0,12,12h23.73a1.08,1.08,0,0,1,1.08,1.08v70C106.85,118.37,105.83,119.61,104.4,119.61Z"/><path class="cls-2" d="M64,56.91c-10.88,0-21.9,2.69-21.9,7.82V99.14c0,5.13,11,7.82,21.9,7.82s21.9-2.69,21.9-7.82V64.73C85.9,59.6,74.88,56.91,64,56.91ZM82.77,75.62c-.23.5-2.11,1.9-6.7,3.25a1.57,1.57,0,0,0,.44,3.07,1.31,1.31,0,0,0,.44-.07,27.69,27.69,0,0,0,5.82-2.32v8.64c0,1.66-7.13,4.69-18.77,4.69s-18.77-3-18.77-4.69V79.91c4,2.37,11.43,3.59,18.77,3.59a1.57,1.57,0,0,0,0-3.13c-11.64,0-18.77-3-18.77-4.69V69c4,2.37,11.43,3.59,18.77,3.59S78.73,71.33,82.77,69ZM64,60c11.64,0,18.77,3,18.77,4.69S75.64,69.42,64,69.42s-18.77-3-18.77-4.69S52.36,60,64,60Zm0,43.79c-11.64,0-18.77-3-18.77-4.69V92.42C49.27,94.79,56.66,96,64,96s14.73-1.22,18.77-3.59v6.72C82.77,100.79,75.64,103.83,64,103.83Z"/><path class="cls-2" d="M70.26,83.5a1.53,1.53,0,0,0,1.1-.46,1.56,1.56,0,0,0,0-2.21,1.62,1.62,0,0,0-2.21,0,1.57,1.57,0,0,0-.46,1.11,1.63,1.63,0,0,0,.46,1.11A1.58,1.58,0,0,0,70.26,83.5Z"/></svg>