<svg id="Layer_1" data-name="Layer 1" xmlns="http://www.w3.org/2000/svg" viewBox="0 0 128 128"><defs><style>.cls-1{fill:#333;}</style></defs><title>icons-ged</title><path class="cls-1" d="M83.33,3.25A10.91,10.91,0,0,0,75.45,0H23.61a10.91,10.91,0,0,0-7.88,3.25,10.93,10.93,0,0,0-3.25,7.87V116.88A11.14,11.14,0,0,0,23.61,128H104.4a11.13,11.13,0,0,0,11.12-11.12V40.06a11.1,11.1,0,0,0-3.39-7.87ZM78.62,13.32a1.07,1.07,0,0,1,.67-1,1,1,0,0,1,.42-.09,1.07,1.07,0,0,1,.76.32L103,35.05a1.07,1.07,0,0,1,.23,1.18,1.09,1.09,0,0,1-1,.67H82a3.38,3.38,0,0,1-3.42-3.42ZM104.4,119.61H23.61A2.6,2.6,0,0,1,21,117V11.12a2.7,2.7,0,0,1,.73-1.86,2.42,2.42,0,0,1,1.87-.73H69a1.08,1.08,0,0,1,1.08,1.08V33.48a12,12,0,0,0,12,12h23.73a1.08,1.08,0,0,1,1.08,1.08v70C106.85,118.37,105.83,119.61,104.4,119.61Z"/><path class="cls-1" d="M69,55.87c-2.28-2.55-4.53-5.39-6.56-7.94-1-1.21-1.87-2.36-2.73-3.41l-.06-.07a36,36,0,0,0,2.13-8.69c.41-5.59-.22-9.19-1.91-11a4.19,4.19,0,0,0-4.46-1.11c-1.16.38-2.72,1.42-3.61,4.16-1.33,4.08-.69,11.31,3.1,17.28a127.6,127.6,0,0,1-6.65,14.35A31.55,31.55,0,0,0,36.5,66.22c-3.7,3.61-5.21,7.2-4.13,9.84a4.22,4.22,0,0,0,4.1,2.6,7.68,7.68,0,0,0,4.15-1.38c3.5-2.29,8.08-9.92,10.54-14.35A65.91,65.91,0,0,1,63.8,60.45c1.15-.11,2.3-.2,3.4-.26,4.46,4.71,8.11,7.19,11.47,7.81a10.6,10.6,0,0,0,2,.19c2.74,0,5-1.09,6.06-2.92a4.34,4.34,0,0,0,0-4.43c-1.87-3.22-7.5-5-15.85-5ZM38.29,73.73a3.74,3.74,0,0,1-1.82.69l-.19,0c-.08-.42.22-2.25,3.18-5.15a22.32,22.32,0,0,1,5.24-3.7C42.07,69.78,39.7,72.81,38.29,73.73ZM55.81,29.12c.31-.95.69-1.38.93-1.46h0c.23.26,1.21,1.74.77,7.79a22.16,22.16,0,0,1-.77,4C55.34,35.78,55,31.73,55.81,29.12Zm7.58,27.11a71.93,71.93,0,0,0-9.53,1.57c1.48-3,2.86-6,4-8.77.4.5.81,1,1.22,1.54,1.39,1.75,2.95,3.71,4.57,5.63ZM83,63c.06.11.06.15,0,.18a2.93,2.93,0,0,1-2.38.8,6.75,6.75,0,0,1-1.24-.12c-1.75-.32-3.8-1.53-6.23-3.69C79.81,60.45,82.48,62,83,63Z"/><path class="cls-1" d="M48.58,87.77h0A8.74,8.74,0,0,0,45.45,86a13.82,13.82,0,0,0-4.36-.61H33.24a1,1,0,0,0-1,1v22.25a1,1,0,0,0,1,1H38.4a1,1,0,0,0,1-1v-6.43h1.69a13.92,13.92,0,0,0,4.31-.61,8.88,8.88,0,0,0,3.15-1.76,7.17,7.17,0,0,0,1.89-2.77,9.4,9.4,0,0,0,.6-3.41,8.88,8.88,0,0,0-.58-3.24A7,7,0,0,0,48.58,87.77ZM39.4,91.28h1.69a4.48,4.48,0,0,1,1.37.19,2.15,2.15,0,0,1,.8.47,1.92,1.92,0,0,1,.45.7,2.89,2.89,0,0,1,.17,1,2.85,2.85,0,0,1-.62,2h0a2.93,2.93,0,0,1-2.17.64H39.4Z"/><path class="cls-1" d="M72.22,88.87a11.66,11.66,0,0,0-4-2.54,13.77,13.77,0,0,0-5.1-.91H54.51a1,1,0,0,0-1,1v22.25a1,1,0,0,0,1,1h8.64a13.88,13.88,0,0,0,5.09-.9,11.55,11.55,0,0,0,4-2.54,11.21,11.21,0,0,0,2.57-3.86,13.25,13.25,0,0,0,0-9.65A11.08,11.08,0,0,0,72.22,88.87ZM63.15,103.7H60.7V91.39h2.45a5.83,5.83,0,0,1,2.25.41A4.34,4.34,0,0,1,67,93a5.39,5.39,0,0,1,1,1.91,8.78,8.78,0,0,1,.38,2.67,8.92,8.92,0,0,1-.38,2.69h0a5.43,5.43,0,0,1-1,1.9,4.34,4.34,0,0,1-1.6,1.16A5.83,5.83,0,0,1,63.15,103.7Z"/><path class="cls-1" d="M93.92,85.42H79.59a1,1,0,0,0-1,1v22.25a1,1,0,0,0,1,1h5.19a1,1,0,0,0,1-1V101h6.61a1,1,0,0,0,1-1V96a1,1,0,0,0-1-1H85.78V91.39h8.14a1,1,0,0,0,1-1v-4A1,1,0,0,0,93.92,85.42Z"/></svg>