<svg id="Layer_1" data-name="Layer 1" xmlns="http://www.w3.org/2000/svg" viewBox="0 0 128 128"><defs><style>.cls-1{fill:#333;}</style></defs><title>icons-ged</title><path class="cls-1" d="M83.33,3.25A10.91,10.91,0,0,0,75.45,0H23.61a10.91,10.91,0,0,0-7.88,3.25,10.93,10.93,0,0,0-3.25,7.87V116.88A11.14,11.14,0,0,0,23.61,128H104.4a11.13,11.13,0,0,0,11.12-11.12V40.06a11.1,11.1,0,0,0-3.39-7.87ZM78.62,13.32a1.07,1.07,0,0,1,.67-1,1,1,0,0,1,.42-.09,1.07,1.07,0,0,1,.76.32L103,35.05a1.07,1.07,0,0,1,.23,1.18,1.09,1.09,0,0,1-1,.67H82a3.38,3.38,0,0,1-3.42-3.42ZM104.4,119.61H23.61A2.6,2.6,0,0,1,21,117V11.12a2.7,2.7,0,0,1,.73-1.86,2.42,2.42,0,0,1,1.87-.73H69a1.08,1.08,0,0,1,1.08,1.08V33.48a12,12,0,0,0,12,12h23.73a1.08,1.08,0,0,1,1.08,1.08v70C106.85,118.37,105.83,119.61,104.4,119.61Z"/><path class="cls-1" d="M60.39,48.47A32.46,32.46,0,1,0,92.85,80.93,32.55,32.55,0,0,0,60.39,48.47Zm0,56.06A23.61,23.61,0,1,1,84,80.93,23.59,23.59,0,0,1,60.39,104.53Z"/><path class="cls-1" d="M59.77,66a3.23,3.23,0,0,0-4.2-2.33A17.61,17.61,0,0,0,43.15,76.11a3.45,3.45,0,0,0,2.33,4.19,1.91,1.91,0,0,0,.93.16A3.18,3.18,0,0,0,49.67,78a10.78,10.78,0,0,1,7.61-7.6A3.55,3.55,0,0,0,59.77,66Z"/><circle class="cls-1" cx="60.39" cy="80.93" r="6.52"/></svg>